<svg xmlns="http://www.w3.org/2000/svg" xmlns:xlink="http://www.w3.org/1999/xlink" width="630.965" height="501.9" viewBox="0 0 630.965 501.9"><defs><style>.a{opacity:0.688;}.a,.b,.g{fill:url(#a);}.b,.c,.d{opacity:0.177;}.c,.f{fill:#fff;}.d{fill:none;}.e{opacity:0.186;}.g{opacity:0.997;}.h,.i{stroke:none;}.i{fill:#fff;}.j{filter:url(#l);}.k{filter:url(#i);}.l{filter:url(#g);}.m{filter:url(#e);}.n{filter:url(#b);}</style><linearGradient id="a" x1="0.818" y1="-0.008" x2="0.394" y2="0.433" gradientUnits="objectBoundingBox"><stop offset="0" stop-color="#4966fb"/><stop offset="1" stop-color="#7143db"/></linearGradient><filter id="b" x="238.996" y="89.555" width="391.969" height="385.416" filterUnits="userSpaceOnUse"><feOffset dy="6" input="SourceAlpha"/><feGaussianBlur stdDeviation="15" result="c"/><feFlood flood-color="#6831d1"/><feComposite operator="in" in2="c"/><feComposite in="SourceGraphic"/></filter><filter id="e" x="89.908" y="0" width="448.092" height="416.011" filterUnits="userSpaceOnUse"><feOffset dy="6" input="SourceAlpha"/><feGaussianBlur stdDeviation="15" result="f"/><feFlood flood-color="#6831d1"/><feComposite operator="in" in2="f"/><feComposite in="SourceGraphic"/></filter><filter id="g" x="0" y="53.609" width="340.653" height="318.197" filterUnits="userSpaceOnUse"><feOffset dy="6" input="SourceAlpha"/><feGaussianBlur stdDeviation="15" result="h"/><feFlood flood-color="#6831d1"/><feComposite operator="in" in2="h"/><feComposite in="SourceGraphic"/></filter><filter id="i" x="71.042" y="183.702" width="340.653" height="318.197" filterUnits="userSpaceOnUse"><feOffset dy="6" input="SourceAlpha"/><feGaussianBlur stdDeviation="15" result="j"/><feFlood flood-color="#6831d1"/><feComposite operator="in" in2="j"/><feComposite in="SourceGraphic"/></filter><filter id="l" x="156.851" y="72.064" width="348.168" height="356.878" filterUnits="userSpaceOnUse"><feOffset dy="6" input="SourceAlpha"/><feGaussianBlur stdDeviation="15" result="m"/><feFlood flood-color="#6831d1"/><feComposite operator="in" in2="m"/><feComposite in="SourceGraphic"/></filter></defs><g transform="translate(45 39)"><g transform="translate(-800.67 -47.459)"><g class="n" transform="matrix(1, 0, 0, 1, 755.67, 8.46)"><path class="a" d="M165.562,0a12,12,0,0,1,10.359,5.943l50.466,86.318a12,12,0,0,1,0,12.113l-50.466,86.318a12,12,0,0,1-10.359,5.943H64.367a12,12,0,0,1-10.359-5.943L3.541,104.375a12,12,0,0,1,0-12.113L54.008,5.943A12,12,0,0,1,64.367,0Z" transform="matrix(-0.8, -0.6, 0.6, -0.8, 467.63, 423.97)"/></g><g class="m" transform="matrix(1, 0, 0, 1, 755.67, 8.46)"><path class="b" d="M221.26,0a12,12,0,0,1,10.359,5.943l69.032,118.074a12,12,0,0,1,0,12.113L231.619,254.2a12,12,0,0,1-10.359,5.943H82.933A12,12,0,0,1,72.573,254.2L3.541,136.13a12,12,0,0,1,0-12.113L72.573,5.943A12,12,0,0,1,82.933,0Z" transform="translate(430.06 365.01) rotate(-166)"/></g><g class="l" transform="matrix(1, 0, 0, 1, 755.67, 8.46)"><path class="c" d="M152.809,0a12,12,0,0,1,10.359,5.943l46.216,79.048a12,12,0,0,1,0,12.113l-46.216,79.048a12,12,0,0,1-10.359,5.943H60.116a12,12,0,0,1-10.359-5.943L3.541,97.1a12,12,0,0,1,0-12.113L49.757,5.943A12,12,0,0,1,60.116,0Z" transform="translate(251.6 320.81) rotate(-166)"/></g><g class="k" transform="matrix(1, 0, 0, 1, 755.67, 8.46)"><g class="d" transform="translate(322.64 450.9) rotate(-166)"><path class="h" d="M152.809,0a12,12,0,0,1,10.359,5.943l46.216,79.048a12,12,0,0,1,0,12.113l-46.216,79.048a12,12,0,0,1-10.359,5.943H60.116a12,12,0,0,1-10.359-5.943L3.541,97.1a12,12,0,0,1,0-12.113L49.757,5.943A12,12,0,0,1,60.116,0Z"/><path class="i" d="M 60.11595153808594 4 C 57.28489685058594 4 54.63856506347656 5.518234252929688 53.20965576171875 7.962234497070312 L 6.994186401367188 87.009765625 C 5.538040161132812 89.50035095214844 5.538040161132812 92.59473419189453 6.994155883789062 95.0853271484375 L 53.20965576171875 174.1328277587891 C 54.63853454589844 176.5767974853516 57.28489685058594 178.0950317382812 60.11592102050781 178.0950622558594 L 152.8092651367188 178.0950622558594 C 155.6403045654297 178.0950622558594 158.28662109375 176.5768280029297 159.7155456542969 174.1328582763672 L 205.9311218261719 95.0853271484375 C 207.3872680664062 92.59473419189453 207.3872680664062 89.50032806396484 205.93115234375 87.00973510742188 L 159.7155456542969 7.962203979492188 C 158.2866516113281 5.518234252929688 155.6403350830078 4 152.8092651367188 4 L 60.11595153808594 4 M 60.11595153808594 0 L 152.8092651367188 0 C 157.0730590820312 0 161.0166320800781 2.262466430664062 163.1686553955078 5.943328857421875 L 209.38427734375 84.99085235595703 C 211.5717468261719 88.73235321044922 211.5717468261719 93.36270904541016 209.38427734375 97.10420989990234 L 163.1686553955078 176.1517333984375 C 161.0166320800781 179.8325653076172 157.0730590820312 182.0950622558594 152.8092651367188 182.0950622558594 L 60.11592102050781 182.0950622558594 C 55.85212707519531 182.0950317382812 51.9085693359375 179.8325653076172 49.75653076171875 176.1517028808594 L 3.541030883789062 97.10420989990234 C 1.353561401367188 93.36267852783203 1.353561401367188 88.73238372802734 3.541030883789062 84.99088287353516 L 49.75653076171875 5.943359375 C 51.9085693359375 2.262496948242188 55.85215759277344 0 60.11595153808594 0 Z"/></g></g><g class="e" transform="translate(890.198 148.309)"><path class="f" d="M783.176,829.806l-12.66-20.625a95.975,95.975,0,0,0-1.226-37.032l11.744-21.674a2.987,2.987,0,0,0-.078-2.981l-16.469-26.826a2.986,2.986,0,0,0-2.62-1.421l-25.166.681a94.627,94.627,0,0,0-29.006-16.217l-12.6-21.821a2.983,2.983,0,0,0-2.582-1.489H661.038a2.981,2.981,0,0,0-2.579,1.489l-12.445,21.555a95.882,95.882,0,0,0-33.683,19.841l-24.495.661a2.977,2.977,0,0,0-2.541,1.56l-15,27.674a2.972,2.972,0,0,0,.082,2.978l12.38,20.172a95.808,95.808,0,0,0,.811,38.773l-11.049,20.387a2.988,2.988,0,0,0,.078,2.981L589.069,865.3a2.989,2.989,0,0,0,2.62,1.421l22.734-.616a94.5,94.5,0,0,0,32.719,18.37l11.318,19.6a2.981,2.981,0,0,0,2.579,1.489h31.476a2.983,2.983,0,0,0,2.582-1.489l11.471-19.865a95.8,95.8,0,0,0,35.745-21.558l23.408-.634a2.977,2.977,0,0,0,2.541-1.56l15-27.674A2.971,2.971,0,0,0,783.176,829.806Zm-19.337,26.3-22.849.616a3,3,0,0,0-2,.852,89.708,89.708,0,0,1-35.336,21.317,3,3,0,0,0-1.676,1.349L690.793,899.6H662.762l-11.038-19.116a2.968,2.968,0,0,0-1.7-1.356,88.616,88.616,0,0,1-32.552-18.274,2.988,2.988,0,0,0-2.051-.742l-22.172.6L578.583,836.82l10.769-19.872a2.975,2.975,0,0,0,.276-2.119,89.848,89.848,0,0,1-.8-38.494,2.984,2.984,0,0,0-.385-2.139l-12.087-19.688,13.358-24.645,23.892-.647a2.978,2.978,0,0,0,1.952-.8,89.846,89.846,0,0,1,33.384-19.657,3.007,3.007,0,0,0,1.666-1.346l12.152-21.047h28.031l12.3,21.3A2.972,2.972,0,0,0,704.731,709a88.823,88.823,0,0,1,29.02,16.227,2.943,2.943,0,0,0,2,.691l24.56-.664,14.666,23.892-11.467,21.163a2.977,2.977,0,0,0-.276,2.133,89.992,89.992,0,0,1,1.226,36.831,2.974,2.974,0,0,0,.4,2.075L777.2,831.458Z" transform="translate(-569.937 -680.403)"/><path class="f" d="M652.113,692.335a71.93,71.93,0,1,0,71.928,71.932A72.012,72.012,0,0,0,652.113,692.335Zm0,137.9a65.968,65.968,0,1,1,65.966-65.967A66.04,66.04,0,0,1,652.113,830.233Z" transform="translate(-545.273 -651.685)"/><path class="f" d="M593.377,719.882v31.16l26.985,15.58,26.985-15.58v-31.16L620.362,704.3Z" transform="translate(-513.522 -622.882)"/></g><g class="j" transform="matrix(1, 0, 0, 1, 755.67, 8.46)"><path class="g" d="M142.542,0a19,19,0,0,1,16.4,9.41l40.039,68.484a19,19,0,0,1,0,19.179l-40.039,68.484a19,19,0,0,1-16.4,9.41H62.048a19,19,0,0,1-16.4-9.41L5.607,97.073a19,19,0,0,1,0-19.179L45.646,9.41A19,19,0,0,1,62.048,0Z" transform="matrix(-0.54, 0.84, -0.84, -0.54, 460.02, 206.36)"/></g><g transform="translate(1039.799 203.641)"><path class="f" d="M663.356,745.855l-5.546-9.036a42.044,42.044,0,0,0-.537-16.224l5.145-9.5a1.309,1.309,0,0,0-.034-1.306l-7.215-11.752a1.308,1.308,0,0,0-1.148-.622l-11.025.3a41.454,41.454,0,0,0-12.707-7.1l-5.519-9.559a1.307,1.307,0,0,0-1.131-.652H609.848a1.306,1.306,0,0,0-1.13.652l-5.452,9.443a42,42,0,0,0-14.756,8.692l-10.731.289a1.3,1.3,0,0,0-1.113.684l-6.57,12.124a1.3,1.3,0,0,0,.036,1.3l5.424,8.837a41.972,41.972,0,0,0,.355,16.986l-4.84,8.931a1.309,1.309,0,0,0,.034,1.306l7.215,11.752a1.31,1.31,0,0,0,1.148.622l9.959-.27A41.4,41.4,0,0,0,603.76,769.8l4.958,8.588a1.306,1.306,0,0,0,1.13.652h13.789a1.307,1.307,0,0,0,1.131-.652l5.025-8.7a41.969,41.969,0,0,0,15.659-9.445l10.255-.278a1.3,1.3,0,0,0,1.113-.684l6.57-12.124A1.3,1.3,0,0,0,663.356,745.855Zm-8.471,11.521-10.01.27a1.315,1.315,0,0,0-.878.373,39.3,39.3,0,0,1-15.48,9.339,1.314,1.314,0,0,0-.734.591l-4.9,8.483H610.6l-4.836-8.374a1.3,1.3,0,0,0-.745-.594,38.823,38.823,0,0,1-14.261-8.006,1.309,1.309,0,0,0-.9-.325l-9.713.263-6.425-10.467,4.718-8.706a1.3,1.3,0,0,0,.121-.928,39.365,39.365,0,0,1-.349-16.864,1.307,1.307,0,0,0-.169-.937l-5.3-8.625,5.852-10.8,10.467-.284a1.3,1.3,0,0,0,.855-.351,39.36,39.36,0,0,1,14.625-8.612,1.317,1.317,0,0,0,.73-.59l5.324-9.221h12.28l5.388,9.331a1.3,1.3,0,0,0,.718.585A38.912,38.912,0,0,1,641.7,700.04a1.29,1.29,0,0,0,.875.3l10.759-.291,6.425,10.467-5.024,9.271a1.3,1.3,0,0,0-.121.934,39.424,39.424,0,0,1,.537,16.135,1.3,1.3,0,0,0,.173.909l5.409,8.81Z" transform="translate(-569.937 -680.403)"/><path class="f" d="M611.7,692.335a31.512,31.512,0,1,0,31.511,31.513A31.548,31.548,0,0,0,611.7,692.335Zm0,60.412a28.9,28.9,0,1,1,28.9-28.9A28.932,28.932,0,0,1,611.7,752.747Z" transform="translate(-564.89 -674.526)"/><path class="f" d="M593.377,711.128v13.651L605.2,731.6l11.822-6.825V711.128L605.2,704.3Z" transform="translate(-558.393 -668.633)"/></g></g></g></svg>